<svg width="45" height="32" viewBox="0 0 45 32" fill="none" xmlns="http://www.w3.org/2000/svg">
<path d="M38.5333 26.6668C33.0897 26.6598 27.8711 24.4942 24.0219 20.645C20.1726 16.7957 18.0071 11.5771 18 6.13349C18 4.50682 18.6462 2.94679 19.7964 1.79656C20.9466 0.646341 22.5067 0.000152393 24.1333 0.000152393C24.4778 -0.00247134 24.8217 0.0287902 25.16 0.0934856C25.4871 0.141886 25.8086 0.222272 26.12 0.333486C26.339 0.410325 26.5341 0.542997 26.6861 0.718382C26.8381 0.893767 26.9417 1.10579 26.9867 1.33349L28.8133 9.33349C28.8626 9.55064 28.8566 9.77666 28.7961 9.99093C28.7355 10.2052 28.6223 10.4009 28.4667 10.5602C28.2933 10.7468 28.28 10.7602 26.64 11.6135C27.9533 14.4946 30.2576 16.8084 33.1333 18.1335C34 16.4802 34.0133 16.4668 34.2 16.2935C34.3593 16.1379 34.555 16.0246 34.7692 15.9641C34.9835 15.9035 35.2095 15.8976 35.4267 15.9468L43.4267 17.7735C43.6471 17.8246 43.8508 17.931 44.0188 18.0826C44.1867 18.2342 44.3133 18.4261 44.3867 18.6402C44.4992 18.9566 44.584 19.2823 44.64 19.6135C44.6937 19.9486 44.7204 20.2874 44.72 20.6268C44.6954 22.2465 44.0311 23.7907 42.872 24.9224C41.7129 26.054 40.1532 26.6811 38.5333 26.6668V26.6668Z" fill="#231F20"/>
</svg>
