<svg width="32" height="36" viewBox="0 0 32 36" fill="none" xmlns="http://www.w3.org/2000/svg">
<path d="M10.3333 10.6667C11.3881 10.6667 12.4193 10.3539 13.2963 9.76784C14.1734 9.18181 14.857 8.34885 15.2606 7.37431C15.6643 6.39977 15.7699 5.32742 15.5641 4.29285C15.3583 3.25829 14.8504 2.30798 14.1045 1.5621C13.3586 0.816219 12.4083 0.308269 11.3738 0.102481C10.3392 -0.103307 9.26683 0.00231083 8.29229 0.405978C7.31775 0.809646 6.4848 1.49323 5.89877 2.37029C5.31273 3.24736 4.99994 4.2785 4.99994 5.33334C4.99994 6.74782 5.56184 8.10438 6.56204 9.10457C7.56223 10.1048 8.91878 10.6667 10.3333 10.6667Z" fill="#231F20"/>
<path d="M20.9999 13.3333C21.7911 13.3333 22.5644 13.0987 23.2222 12.6592C23.88 12.2197 24.3927 11.595 24.6955 10.8641C24.9982 10.1332 25.0774 9.3289 24.9231 8.55298C24.7687 7.77705 24.3878 7.06432 23.8284 6.50491C23.269 5.9455 22.5562 5.56454 21.7803 5.4102C21.0044 5.25586 20.2001 5.33507 19.4692 5.63782C18.7383 5.94057 18.1136 6.45326 17.6741 7.11106C17.2345 7.76885 16.9999 8.54221 16.9999 9.33334C16.9999 10.3942 17.4214 11.4116 18.1715 12.1618C18.9217 12.9119 19.9391 13.3333 20.9999 13.3333Z" fill="#231F20"/>
<path d="M26.3332 22.6667C26.6868 22.6667 27.026 22.5262 27.276 22.2761C27.5261 22.0261 27.6665 21.6869 27.6665 21.3333C27.6655 20.0872 27.3152 18.8663 26.6554 17.8092C25.9956 16.752 25.0527 15.901 23.9337 15.3526C22.8147 14.8042 21.5644 14.5804 20.3247 14.7067C19.0849 14.8329 17.9054 15.304 16.9199 16.0667C15.6139 14.7658 13.952 13.8808 12.1436 13.5232C10.3353 13.1657 8.46164 13.3516 6.75885 14.0575C5.05606 14.7634 3.60043 15.9578 2.57553 17.4899C1.55064 19.022 1.00237 20.8233 0.999878 22.6667C0.999878 23.0203 1.14035 23.3594 1.3904 23.6095C1.64045 23.8595 1.97959 24 2.33321 24H18.3332C18.6868 24 19.026 23.8595 19.276 23.6095C19.5261 23.3594 19.6665 23.0203 19.6665 22.6667" fill="#231F20"/>
</svg>
