<svg width="32" height="32" viewBox="0 0 32 32" fill="none" xmlns="http://www.w3.org/2000/svg">
<path d="M13.3333 18.6667H18.6666V28H13.3333V18.6667Z" fill="#231F20"/>
<path d="M27.2268 13.5733L16.9468 3.06666C16.8228 2.94169 16.6753 2.8425 16.5129 2.7748C16.3504 2.70711 16.1761 2.67226 16.0001 2.67226C15.8241 2.67226 15.6498 2.70711 15.4873 2.7748C15.3248 2.8425 15.1774 2.94169 15.0534 3.06666L4.77343 13.5867C4.52468 13.8374 4.32822 14.1351 4.19546 14.4624C4.06271 14.7897 3.9963 15.1401 4.00009 15.4933V26.6667C3.99906 27.3492 4.25979 28.0062 4.72859 28.5023C5.19739 28.9983 5.83857 29.2958 6.52009 29.3333H10.6668V17.3333C10.6668 16.9797 10.8072 16.6406 11.0573 16.3905C11.3073 16.1405 11.6465 16 12.0001 16H20.0001C20.3537 16 20.6929 16.1405 20.9429 16.3905C21.193 16.6406 21.3334 16.9797 21.3334 17.3333V29.3333H25.4801C26.1616 29.2958 26.8028 28.9983 27.2716 28.5023C27.7404 28.0062 28.0011 27.3492 28.0001 26.6667V15.4933C28.0011 14.7772 27.7239 14.0888 27.2268 13.5733V13.5733Z" fill="#231F20"/>
</svg>
