<svg width="31" height="31" viewBox="0 0 31 31" fill="none" xmlns="http://www.w3.org/2000/svg">
<path d="M24.5416 5.16667H6.45831C5.4306 5.16667 4.44498 5.57493 3.71827 6.30163C2.99157 7.02834 2.58331 8.01396 2.58331 9.04167V21.9583C2.58331 22.9861 2.99157 23.9717 3.71827 24.6984C4.44498 25.4251 5.4306 25.8333 6.45831 25.8333H24.5416C25.5694 25.8333 26.555 25.4251 27.2817 24.6984C28.0084 23.9717 28.4166 22.9861 28.4166 21.9583V9.04167C28.4166 8.01396 28.0084 7.02834 27.2817 6.30163C26.555 5.57493 25.5694 5.16667 24.5416 5.16667V5.16667ZM23.6762 7.75001L15.5 13.8854L7.32373 7.75001H23.6762ZM24.5416 23.25H6.45831C6.11574 23.25 5.7872 23.1139 5.54497 22.8717C5.30273 22.6295 5.16665 22.3009 5.16665 21.9583V9.36459L14.725 16.5333C14.9486 16.701 15.2205 16.7917 15.5 16.7917C15.7795 16.7917 16.0514 16.701 16.275 16.5333L25.8333 9.36459V21.9583C25.8333 22.3009 25.6972 22.6295 25.455 22.8717C25.2128 23.1139 24.8842 23.25 24.5416 23.25Z" fill="#231F20"/>
</svg>
