<svg width="30" height="30" viewBox="0 0 30 30" fill="none" xmlns="http://www.w3.org/2000/svg">
<path d="M14.9999 2.5C12.365 2.49987 9.83651 3.5397 7.96399 5.39349C6.09148 7.24728 5.02629 9.7652 4.99994 12.4C4.99994 19.25 13.8124 26.875 14.1874 27.2C14.4139 27.3937 14.702 27.5001 14.9999 27.5001C15.2979 27.5001 15.586 27.3937 15.8124 27.2C16.2499 26.875 24.9999 19.25 24.9999 12.4C24.9736 9.7652 23.9084 7.24728 22.0359 5.39349C20.1634 3.5397 17.6349 2.49987 14.9999 2.5V2.5ZM14.9999 24.5625C12.9124 22.575 7.49994 17.0625 7.49994 12.4C7.49994 10.4109 8.29012 8.50322 9.69664 7.0967C11.1032 5.69018 13.0108 4.9 14.9999 4.9C16.9891 4.9 18.8967 5.69018 20.3032 7.0967C21.7098 8.50322 22.4999 10.4109 22.4999 12.4C22.4999 17.025 17.0874 22.575 14.9999 24.5625Z" fill="#231F20"/>
<path d="M15 7.5C14.1347 7.5 13.2888 7.75659 12.5694 8.23732C11.8499 8.71805 11.2892 9.40133 10.958 10.2008C10.6269 11.0002 10.5403 11.8799 10.7091 12.7285C10.8779 13.5772 11.2946 14.3567 11.9064 14.9686C12.5183 15.5804 13.2978 15.9971 14.1465 16.1659C14.9951 16.3347 15.8748 16.2481 16.6742 15.917C17.4737 15.5858 18.157 15.0251 18.6377 14.3056C19.1184 13.5862 19.375 12.7403 19.375 11.875C19.375 10.7147 18.9141 9.60188 18.0936 8.78141C17.2731 7.96094 16.1603 7.5 15 7.5V7.5ZM15 13.75C14.6292 13.75 14.2667 13.64 13.9583 13.434C13.65 13.228 13.4096 12.9351 13.2677 12.5925C13.1258 12.2499 13.0887 11.8729 13.161 11.5092C13.2334 11.1455 13.412 10.8114 13.6742 10.5492C13.9364 10.287 14.2705 10.1084 14.6342 10.036C14.9979 9.96368 15.3749 10.0008 15.7175 10.1427C16.0601 10.2846 16.353 10.525 16.559 10.8333C16.765 11.1416 16.875 11.5042 16.875 11.875C16.875 12.3723 16.6775 12.8492 16.3258 13.2008C15.9742 13.5525 15.4973 13.75 15 13.75Z" fill="#231F20"/>
</svg>
